<?xml version="1.0" encoding="UTF-8" standalone="no"?><!DOCTYPE svg PUBLIC "-//W3C//DTD SVG 1.1//EN" "http://www.w3.org/Graphics/SVG/1.1/DTD/svg11.dtd"><svg width="100%" height="100%" viewBox="0 0 625 625" version="1.1" xmlns="http://www.w3.org/2000/svg" xmlns:xlink="http://www.w3.org/1999/xlink" xml:space="preserve" xmlns:serif="http://www.serif.com/" style="fill-rule:evenodd;clip-rule:evenodd;stroke-linejoin:round;stroke-miterlimit:2;"><rect id="logo" x="0" y="0" width="620.935" height="620.935" style="fill:none;"/><clipPath id="_clip1"><rect x="0" y="0" width="620.935" height="620.935"/></clipPath><g clip-path="url(#_clip1)"><path d="M313.378,1.658l182.488,59.294l112.784,155.234l0,191.88l-112.784,155.234l-182.488,59.294l-182.488,-59.294l-112.784,-155.234l-0,-191.88l112.784,-155.234l182.488,-59.294Z" style="fill:#f0c8da;"/><path d="M168.463,436.207c0,11.357 9.346,20.703 20.702,20.703l248.426,-0c11.357,-0 20.702,-9.346 20.702,-20.703c-0,-4.347 -1.449,-8.487 -3.727,-11.8l-120.486,-208.677l0,-90.054l-41.404,-0l-0,90.054l-120.486,208.677c-2.278,3.313 -3.727,7.453 -3.727,11.8m20.702,62.107c-34.07,-0 -62.106,-28.036 -62.106,-62.107c0,-12.421 3.726,-24.014 10.351,-33.744l113.862,-197.912l-0,-37.471c-11.357,-0 -20.702,-9.345 -20.702,-20.702l-0,-20.702c-0,-22.714 18.69,-41.405 41.404,-41.405l82.808,0c22.714,0 41.405,18.691 41.405,41.405l-0,20.702c-0,11.357 -9.346,20.702 -20.703,20.702l0,37.471l113.862,197.912c6.625,9.73 10.351,21.323 10.351,33.744c0,34.071 -28.036,62.107 -62.106,62.107l-248.426,-0m144.915,-124.213l27.741,-27.741l39.955,69.145l-176.796,0l55.068,-95.436l54.032,54.032m-10.351,-82.808c5.679,-0 10.351,4.672 10.351,10.351c0,5.678 -4.672,10.351 -10.351,10.351c-5.678,-0 -10.351,-4.673 -10.351,-10.351c0,-5.679 4.673,-10.351 10.351,-10.351Z" style="fill:url(#_Linear2);fill-rule:nonzero;"/></g><defs><linearGradient id="_Linear2" x1="0" y1="0" x2="1" y2="0" gradientUnits="userSpaceOnUse" gradientTransform="matrix(360.999,226.175,-251.306,401.11,120.753,225.194)"><stop offset="0" style="stop-color:#001183;stop-opacity:1"/><stop offset="0.24" style="stop-color:#481fff;stop-opacity:1"/><stop offset="0.66" style="stop-color:#ba63c6;stop-opacity:1"/><stop offset="1" style="stop-color:#ea7fae;stop-opacity:1"/></linearGradient></defs></svg>